<svg xmlns="http://www.w3.org/2000/svg" width="100%" height="100%" viewBox="0 0 512 512"><defs><linearGradient id="nastorOrange" x1="0%" x2="100%" y1="0%" y2="100%"><stop offset="0%" stop-color="#FF9500"/><stop offset="100%" stop-color="#E05600"/></linearGradient><linearGradient id="glowEffect" x1="0%" x2="0%" y1="0%" y2="100%"><stop offset="0%" stop-color="#FF9500" stop-opacity=".25"/><stop offset="100%" stop-color="#FF9500" stop-opacity="0"/></linearGradient></defs><rect width="512" height="512" fill="#0D0E10" rx="100"/><circle cx="256" cy="256" r="180" fill="url(#glowEffect)"/><g transform="translate(116, 126)"><rect width="32" height="180" x="0" y="40" fill="url(#nastorOrange)" rx="16"/><rect width="32" height="240" x="52" y="10" fill="url(#nastorOrange)" rx="16"/><rect width="32" height="80" x="104" y="90" fill="#4A4E58" rx="16"/><rect width="32" height="240" x="156" y="10" fill="url(#nastorOrange)" rx="16"/><rect width="32" height="180" x="208" y="40" fill="url(#nastorOrange)" rx="16"/><path fill="#FFC043" d="M 260 30 Q 260 55 285 55 Q 260 55 260 80 Q 260 55 235 55 Q 260 55 260 30 Z"/></g></svg>